<svg xmlns="http://www.w3.org/2000/svg" xmlns:xlink="http://www.w3.org/1999/xlink" width="16" height="16" version="1.1" viewBox="0 0 16 16"><g id="Glyphs-/-Not-Allowed" fill="none" fill-rule="evenodd" stroke="none" stroke-width="1"><path fill="#000" d="M6.07397536,12.0681603 C6.65784897,12.3450781 7.31083251,12.5 8,12.5 C10.4852814,12.5 12.5,10.4852814 12.5,8 C12.5,7.31083251 12.3450781,6.65784897 12.0681603,6.07397536 L6.07397536,12.0681603 Z M3.94531399,9.95418095 L9.95418095,3.94531399 C9.36317452,3.65995219 8.70026668,3.5 8,3.5 C5.51471863,3.5 3.5,5.51471863 3.5,8 C3.5,8.70026668 3.65995219,9.36317452 3.94531399,9.95418095 Z M8,15.5 C3.85786438,15.5 0.5,12.1421356 0.5,8 C0.5,3.85786438 3.85786438,0.5 8,0.5 C12.1421356,0.5 15.5,3.85786438 15.5,8 C15.5,12.1421356 12.1421356,15.5 8,15.5 Z"/></g></svg>