<svg xmlns="http://www.w3.org/2000/svg" xmlns:xlink="http://www.w3.org/1999/xlink" width="16" height="16" version="1.1" viewBox="0 0 16 16"><g id="Trash-Copy" fill="none" fill-rule="evenodd" stroke="none" stroke-width="1"><rect id="Rectangle" width="6" height="1" x="5" y="0" fill="#000"/><rect id="Rectangle" width="1" height="1" x="5" y="1" fill="#000"/><rect id="Rectangle-Copy-3" width="1" height="1" x="10" y="1" fill="#000"/><rect id="Rectangle" width="14" height="2" x="1" y="2" fill="#000"/><path id="Combined-Shape" fill="#000" d="M2,5 L14,5 L14,14 C14,15.1045695 13.1045695,16 12,16 L4,16 C2.8954305,16 2,15.1045695 2,14 L2,5 Z M4,6 L4,14 L5,14 L5,6 L4,6 Z M7.5,6 L7.5,14 L8.5,14 L8.5,6 L7.5,6 Z M11,6 L11,14 L12,14 L12,6 L11,6 Z"/></g></svg>